HIERARCHY
ROOT COM
{
  OFFSET 0.000000 0.000000 0.000000
  CHANNELS 6 Xposition Yposition Zposition Zrotation Xrotation Yrotation
  JOINT Spine
  {
    OFFSET 0.000000 10.031300 -3.647750
    CHANNELS 3 Zrotation Xrotation Yrotation
    JOINT Spine1
    {
      OFFSET 0.000000 14.268000 -0.012359
      CHANNELS 3 Zrotation Xrotation Yrotation
      JOINT Spine2
      {
        OFFSET 0.000000 15.553400 -0.011802
        CHANNELS 3 Zrotation Xrotation Yrotation
        JOINT Neck
        {
          OFFSET 0.000000 15.343700 -0.005077
          CHANNELS 3 Zrotation Xrotation Yrotation
          JOINT Head
          {
            OFFSET 0.000000 6.594300 0.000000
            CHANNELS 3 Zrotation Xrotation Yrotation
            End Site
            {
              OFFSET 0.000000 0.000000 0.000000
            }
          }
          JOINT Leftcollar
          {
            OFFSET 4.254290 -1.548100 1.990670
            CHANNELS 3 Zrotation Xrotation Yrotation
            JOINT LeftArm
            {
              OFFSET 16.825900 0.000000 0.000000
              CHANNELS 3 Zrotation Xrotation Yrotation
              JOINT LeftForeArm
              {
                OFFSET 0.000000 -28.058000 0.000000
                CHANNELS 3 Zrotation Xrotation Yrotation
                JOINT LeftHand
                {
                  OFFSET 0.000000 -24.725300 0.000000
                  CHANNELS 3 Zrotation Xrotation Yrotation
                  End Site
                  {
                    OFFSET -2.986150 -9.946190 -0.575321
                  }
                }
              }
            }
          }
          JOINT RightCollar
          {
            OFFSET -4.254280 -1.548090 1.990690
            CHANNELS 3 Zrotation Xrotation Yrotation
            JOINT RightArm
            {
              OFFSET -16.825900 0.000000 0.000000
              CHANNELS 3 Zrotation Xrotation Yrotation
              JOINT RightForeArm
              {
                OFFSET 0.000000 -28.058000 0.000000
                CHANNELS 3 Zrotation Xrotation Yrotation
                JOINT RightHand
                {
                  OFFSET 0.000000 -24.725300 0.000000
                  CHANNELS 3 Zrotation Xrotation Yrotation
                  End Site
                  {
                    OFFSET 2.986150 -9.946180 -0.575319
                  }
                }
              }
            }
          }
        }
      }
    }
  }
  JOINT LeftUpLeg
  {
    OFFSET 9.942750 0.000000 0.000000
    CHANNELS 3 Zrotation Xrotation Yrotation
    JOINT LeftLeg
    {
      OFFSET 0.000000 -45.973000 0.000000
      CHANNELS 3 Zrotation Xrotation Yrotation
      JOINT LeftFoot
      {
        OFFSET 0.000000 -43.163400 0.000000
        CHANNELS 3 Zrotation Xrotation Yrotation
        JOINT LeftToe
        {
          OFFSET 0.000000 0.000000 15.628600
          CHANNELS 3 Zrotation Xrotation Yrotation
          End Site
          {
            OFFSET 0.000000 0.000000 0.000000
          }
        }
      }
    }
  }
  JOINT RightUpLeg
  {
    OFFSET -9.942750 0.000000 0.000000
    CHANNELS 3 Zrotation Xrotation Yrotation
    JOINT RightLeg
    {
      OFFSET 0.000000 -45.973000 0.000000
      CHANNELS 3 Zrotation Xrotation Yrotation
      JOINT RightFoot
      {
        OFFSET 0.000000 -43.163400 0.000000
        CHANNELS 3 Zrotation Xrotation Yrotation
        JOINT RightToe
        {
          OFFSET 0.000000 0.000000 15.628600
          CHANNELS 3 Zrotation Xrotation Yrotation
          End Site
          {
            OFFSET 0.000000 0.000000 0.000000
          }
        }
      }
    }
  }
}
MOTION
Frames: 8
Frame Time: 0.033333
11.030900 93.633100 60.439800 3.385350 3.570700 267.352100 3.108430 2.808560 360.000000 360.000000 0.000000 352.213550 360.000000 360.000000 0.000000 360.000000 360.000000 0.000000 0.000000 360.000000 360.000000 0.000000 360.000000 360.000000 45.428300 357.127910 356.044510 360.000000 341.658300 0.000000 360.000000 0.000000 90.000000 0.000000 360.000000 360.000000 329.896900 6.529790 27.289300 360.000000 341.129700 0.000000 360.000000 0.000000 270.000000 7.715480 1.532150 61.814000 0.000000 2.869330 0.000000 0.000000 17.304200 346.922000 0.000000 360.000000 0.000000 349.444400 345.254500 327.765100 360.000000 46.966400 0.000000 360.000000 5.275930 1.866060 360.000000 0.000000 360.000000 
10.809800 93.806500 60.477700 4.458760 3.765600 262.392400 3.481170 2.472790 0.000000 360.000000 360.000000 351.891970 0.000000 0.000000 360.000000 0.000000 0.000000 360.000000 0.000000 0.000000 360.000000 0.000000 0.000000 360.000000 48.036500 356.529100 2.436020 0.000000 341.721300 0.000000 0.000000 0.000000 90.000000 0.000000 0.000000 360.000000 328.305700 7.981710 23.846700 360.000000 341.884100 0.000000 0.000000 0.000000 270.000000 7.970880 1.805790 64.594900 0.000000 3.261210 0.000000 0.000000 16.911300 348.761200 0.000000 360.000000 0.000000 350.041740 343.374100 325.180700 0.000000 42.415500 360.000000 0.000000 5.918680 2.282620 360.000000 0.000000 0.000000 
10.559900 93.894500 60.311800 5.854400 3.631420 257.801000 3.822200 1.697750 0.000000 0.000000 360.000000 351.616220 0.000000 0.000000 360.000000 360.000000 0.000000 360.000000 0.000000 0.000000 360.000000 0.000000 0.000000 360.000000 49.907300 355.899040 9.669990 0.000000 341.542900 0.000000 360.000000 0.000000 90.000000 0.000000 0.000000 360.000000 327.268100 9.631390 20.310700 0.000000 342.038700 360.000000 360.000000 360.000000 270.000000 7.945250 1.773500 66.697300 360.000000 3.170840 360.000000 360.000000 16.734900 350.904560 0.000000 0.000000 360.000000 351.174990 341.596900 322.438800 0.000000 37.051500 360.000000 0.000000 6.468500 3.673460 0.000000 360.000000 0.000000 
10.225600 93.876400 59.933800 6.626860 3.342480 253.619000 4.159480 1.424240 0.000000 0.000000 360.000000 351.351160 0.000000 0.000000 360.000000 360.000000 360.000000 360.000000 0.000000 0.000000 360.000000 0.000000 0.000000 360.000000 51.090500 355.399290 15.094100 360.000000 341.035600 360.000000 0.000000 0.000000 90.000000 0.000000 0.000000 360.000000 326.783000 11.242800 16.739200 360.000000 342.213600 360.000000 0.000000 0.000000 270.000000 7.713320 2.384790 68.318300 0.000000 2.743250 0.000000 360.000000 16.859000 353.159770 0.000000 0.000000 0.000000 352.503290 340.772600 319.044500 0.000000 31.772000 360.000000 0.000000 7.602780 6.460740 0.000000 0.000000 0.000000 
10.007700 93.725200 59.393600 7.832400 2.430990 250.096000 4.186320 0.578037 0.000000 0.000000 360.000000 350.848540 0.000000 0.000000 360.000000 360.000000 360.000000 0.000000 360.000000 360.000000 0.000000 360.000000 360.000000 0.000000 51.687000 354.735220 19.891900 0.000000 339.952000 0.000000 360.000000 0.000000 90.000000 360.000000 360.000000 0.000000 326.974900 12.628100 13.336700 360.000000 342.491600 0.000000 0.000000 0.000000 270.000000 7.337030 2.118180 69.253900 360.000000 2.766060 0.000000 0.000000 16.654300 355.393940 0.000000 0.000000 0.000000 353.791540 339.651000 315.100300 360.000000 26.511500 0.000000 0.000000 8.580430 8.439850 360.000000 0.000000 360.000000 
9.575240 93.498200 58.472100 8.199100 1.823070 247.135000 4.299860 0.271734 360.000000 0.000000 360.000000 350.157010 0.000000 360.000000 360.000000 360.000000 360.000000 360.000000 0.000000 360.000000 360.000000 0.000000 360.000000 360.000000 51.694700 354.283020 22.026800 0.000000 338.426200 0.000000 360.000000 0.000000 90.000000 0.000000 360.000000 360.000000 327.670800 14.381100 11.652600 0.000000 342.654400 0.000000 360.000000 0.000000 270.000000 7.251120 2.821010 70.843600 0.000000 2.812520 0.000000 360.000000 16.670800 356.392740 0.000000 360.000000 360.000000 355.685170 340.041200 311.524300 360.000000 21.271000 360.000000 0.000000 9.082740 8.809330 360.000000 0.000000 0.000000 
9.051820 93.107300 57.336400 8.465580 1.052160 245.054000 4.357630 359.762074 0.000000 0.000000 0.000000 349.203000 360.000000 360.000000 360.000000 0.000000 360.000000 0.000000 0.000000 0.000000 0.000000 0.000000 0.000000 0.000000 51.129400 353.686360 21.805200 0.000000 336.437300 0.000000 0.000000 0.000000 90.000000 0.000000 0.000000 0.000000 328.620700 16.631000 11.485000 360.000000 342.448200 360.000000 0.000000 0.000000 270.000000 7.183080 3.414480 72.319900 360.000000 3.099280 0.000000 360.000000 16.590400 356.738560 360.000000 360.000000 360.000000 357.300740 340.906700 307.681700 360.000000 16.744900 0.000000 0.000000 9.454970 9.101640 360.000000 360.000000 360.000000 
8.429870 92.703400 55.864400 8.459530 0.608871 243.688000 4.706600 359.386919 0.000000 360.000000 360.000000 347.900600 360.000000 360.000000 0.000000 360.000000 360.000000 360.000000 360.000000 0.000000 360.000000 360.000000 0.000000 360.000000 49.870100 353.195800 20.304800 0.000000 334.133300 0.000000 360.000000 0.000000 90.000000 360.000000 0.000000 360.000000 330.010000 18.973200 12.390500 0.000000 342.534700 0.000000 360.000000 360.000000 270.000000 7.633660 4.330590 73.370100 0.000000 3.634400 360.000000 360.000000 16.473000 356.815700 360.000000 360.000000 0.000000 358.914000 342.517000 305.101700 360.000000 13.200000 360.000000 0.000000 11.538800 10.879200 360.000000 360.000000 0.000000 
